#N canvas 516 214 1385 1307 12;
#N canvas 584 186 1966 1172 comb_filters 0;
#X obj 55 99 +~;
#X obj 55 16 inlet~;
#X obj 29 144 outlet~;
#X obj 400 107 +~;
#X obj 400 24 inlet~;
#X obj 374 152 outlet~;
#X obj 62 362 +~;
#X obj 62 279 inlet~;
#X obj 36 407 outlet~;
#X obj 425 366 +~;
#X obj 425 283 inlet~;
#X obj 399 411 outlet~;
#X obj 135 11 receive comb1_fb;
#X obj 138 265 receive comb3_fb;
#X obj 487 272 receive comb4_fb;
#X obj 513 22 receive comb2_fb;
#X obj 418 63 delread~ comb2;
#X obj 514 155 *~ 0.25;
#X obj 176 410 *~ 0.25;
#X obj 539 414 *~ 0.3;
#X obj 73 55 delread~ comb1;
#X obj 80 318 delread~ comb3;
#X obj 443 322 delread~ comb4;
#X obj 169 147 *~ 0.2;
#X obj 171 453 delwrite~ comb3 1613;
#X obj 534 457 delwrite~ comb4 1553;
#X obj 509 198 delwrite~ comb2 1493;
#X obj 164 190 delwrite~ comb1 1153;
#X connect 0 0 2 0;
#X connect 0 0 23 0;
#X connect 1 0 0 0;
#X connect 3 0 5 0;
#X connect 3 0 17 0;
#X connect 4 0 3 0;
#X connect 6 0 8 0;
#X connect 6 0 18 0;
#X connect 7 0 6 0;
#X connect 9 0 11 0;
#X connect 9 0 19 0;
#X connect 10 0 9 0;
#X connect 12 0 20 0;
#X connect 13 0 21 0;
#X connect 14 0 22 0;
#X connect 15 0 16 0;
#X connect 16 0 3 1;
#X connect 17 0 26 0;
#X connect 18 0 24 0;
#X connect 19 0 25 0;
#X connect 20 0 0 1;
#X connect 21 0 6 1;
#X connect 22 0 9 1;
#X connect 23 0 27 0;
#X restore 46 137 pd comb_filters;
#N canvas 802 487 1708 1028 all_pass_filters 0;
#X obj 47 165 +~;
#X obj 85 208 -~;
#X obj 49 32 inlet~;
#X obj 45 296 outlet~;
#X obj 135 24 receive allpass1_fb;
#X obj 100 91 delread~ allpass1;
#X obj 157 156 *~ 0.7;
#X obj 127 235 delwrite~ allpass1 223;
#X connect 0 0 3 0;
#X connect 0 0 6 0;
#X connect 2 0 0 0;
#X connect 2 0 1 0;
#X connect 4 0 5 0;
#X connect 5 0 0 1;
#X connect 6 0 1 0;
#X connect 6 0 7 0;
#X restore 46 199 pd all_pass_filters;
#X obj 44 293 dac~;
#X obj 11 362 hsl 162 19 0 5000 0 0 empty empty Comb\ pass -2 -10 0 12 #fcfcfc #000000 #000000 0 1;
#X obj 8 389 send comb1_fb;
#X obj 413 358 hsl 162 19 0 5000 0 0 empty empty All\ pass\ filter -2 -10 0 12 #fcfcfc #000000 #000000 0 1;
#X obj 410 382 send allpass1_fb;
#X obj 187 362 hsl 162 19 0 5000 0 0 empty empty Comb\ pass -2 -10 0 12 #fcfcfc #000000 #000000 0 1;
#X obj 10 428 hsl 162 19 0 5000 0 0 empty empty Comb\ pass -2 -10 0 12 #fcfcfc #000000 #000000 0 1;
#X obj 184 428 hsl 162 19 0 5000 0 0 empty empty Comb\ pass -2 -10 0 12 #fcfcfc #000000 #000000 0 1;
#X obj 184 389 send comb2_fb;
#X obj 7 455 send comb3_fb;
#X obj 181 455 send comb4_fb;
#X obj 32 10 bng 19 250 50 0 empty empty empty 0 -10 0 12 #fcfcfc #000000 #000000;
#X obj 32 58 readsf~;
#X obj 32 82 *~ 1;
#N canvas 802 487 1708 1028 all_pass_filters 0;
#X obj 47 165 +~;
#X obj 85 208 -~;
#X obj 49 32 inlet~;
#X obj 45 296 outlet~;
#X obj 135 24 receive allpass2_fb;
#X obj 100 91 delread~ allpass2;
#X obj 157 156 *~ 0.7;
#X obj 127 235 delwrite~ allpass2 443;
#X connect 0 0 3 0;
#X connect 0 0 6 0;
#X connect 2 0 0 0;
#X connect 2 0 1 0;
#X connect 4 0 5 0;
#X connect 5 0 0 1;
#X connect 6 0 1 0;
#X connect 6 0 7 0;
#X restore 45 239 pd all_pass_filters;
#X obj 413 422 hsl 162 19 0 5000 0 0 empty empty All\ pass\ filter -2 -10 0 12 #fcfcfc #000000 #000000 0 1;
#X obj 410 446 send allpass2_fb;
#X msg 32 34 open Clap.wav \, 1;
#X connect 0 0 1 0;
#X connect 0 1 1 0;
#X connect 0 2 1 0;
#X connect 0 3 1 0;
#X connect 1 0 16 0;
#X connect 3 0 4 0;
#X connect 5 0 6 0;
#X connect 7 0 10 0;
#X connect 8 0 11 0;
#X connect 9 0 12 0;
#X connect 13 0 19 0;
#X connect 14 0 15 0;
#X connect 15 0 0 0;
#X connect 15 0 0 1;
#X connect 15 0 0 2;
#X connect 15 0 0 3;
#X connect 16 0 2 0;
#X connect 16 0 2 1;
#X connect 17 0 18 0;
#X connect 19 0 14 0;
